<svg width="32" height="32" viewBox="0 0 32 32" fill="none" xmlns="http://www.w3.org/2000/svg">
<path d="M30 19L26 22.2V20C25.9995 19.4697 25.7886 18.9613 25.4136 18.5864C25.0387 18.2114 24.5303 18.0005 24 18H16C15.4697 18.0005 14.9613 18.2114 14.5864 18.5864C14.2114 18.9613 14.0005 19.4697 14 20V26C14.0005 26.5303 14.2114 27.0387 14.5864 27.4136C14.9613 27.7886 15.4697 27.9995 16 28H24C24.5303 27.9995 25.0387 27.7886 25.4136 27.4136C25.7886 27.0387 25.9995 26.5303 26 26V23.8L30 27V19ZM16 26V20H24L24.002 26H16Z" fill="black"/>
<path d="M12 28H8V4H16V10C16.0016 10.53 16.2128 11.0377 16.5875 11.4125C16.9623 11.7872 17.4701 11.9984 18 12H24V15H26V10C26.0035 9.86858 25.9785 9.73795 25.9268 9.61711C25.875 9.49627 25.7976 9.38809 25.7 9.3L18.7 2.3C18.612 2.20235 18.5038 2.12495 18.3829 2.07316C18.2621 2.02137 18.1314 1.99641 18 2H8C7.47005 2.00159 6.96227 2.21281 6.58753 2.58754C6.2128 2.96227 6.00158 3.47006 6 4V28C6.00158 28.53 6.2128 29.0377 6.58753 29.4125C6.96227 29.7872 7.47005 29.9984 8 30H12V28ZM18 4.4L23.6 10H18V4.4Z" fill="black"/>
<path d="M10 22H16V24H10V22Z" fill="black"/>
<path d="M10 16H22V18H10V16Z" fill="black"/>
</svg>
