<svg xmlns="http://www.w3.org/2000/svg" xmlns:xlink="http://www.w3.org/1999/xlink" aria-hidden="true" role="img" class="iconify iconify--carbon" width="32" height="32" preserveAspectRatio="xMidYMid meet" viewBox="0 0 32 32"><path d="M30 19l-4 3.2V20a2.002 2.002 0 0 0-2-2h-8a2.002 2.002 0 0 0-2 2v6a2.002 2.002 0 0 0 2 2h8a2.002 2.002 0 0 0 2-2v-2.2l4 3.2zm-14 7v-6h8l.002 6z" fill="currentColor"></path><path d="M12 28H8V4h8v6a2.006 2.006 0 0 0 2 2h6v3h2v-5a.91.91 0 0 0-.3-.7l-7-7A.909.909 0 0 0 18 2H8a2.006 2.006 0 0 0-2 2v24a2.006 2.006 0 0 0 2 2h4zm6-23.6l5.6 5.6H18z" fill="currentColor"></path></svg>